# Blender 5.0.1
# www.blender.org
mtllib Desert.mtl
o Cube
v -0.999990 0.050878 0.999891
v -0.996227 0.064163 -0.921912
v -0.998040 0.053995 -0.728680
v -0.985759 0.079556 -0.510590
v -0.995714 0.058234 -0.296619
v -0.987689 0.053312 0.080352
v -0.984203 0.062770 0.281286
v -0.959938 0.076350 0.610511
v -0.997171 0.057942 0.820836
v 0.653658 0.065448 -0.979190
v 0.390222 0.050882 -0.999489
v 0.089052 0.051376 -0.999601
v -0.273544 0.057072 -0.996069
v -0.753714 0.062459 -0.992897
v -0.995897 0.058053 -0.995682
v 0.995882 0.050581 0.017348
v 0.969691 0.057754 -0.197760
v 0.999501 0.050307 -0.441353
v 0.998788 0.057171 -0.695465
v 0.999336 0.049878 -0.998710
v -0.843130 0.058231 0.983009
v -0.616415 0.075253 0.932524
v -0.407506 0.054925 0.984206
v -0.083662 0.055018 0.984271
v 0.129721 0.053264 0.995721
v 0.355859 0.070330 0.979825
v 0.547271 0.051433 0.998569
v -0.999053 0.043291 0.592448
v -1.000000 -0.050269 1.000000
v -0.999966 0.043481 -0.999786
v 1.000000 -0.050269 -1.000000
v 0.999971 0.050498 0.999235
v 1.000000 -0.050269 1.000001
v -0.645194 0.042380 0.998688
v -0.899391 0.068031 -0.903733
v -0.775717 0.076526 -0.879095
v -0.459508 0.056196 -0.994257
v 0.301734 0.050891 -0.931862
v 0.513169 0.057853 -0.852382
v 0.682487 0.075196 -0.886050
v -0.677466 0.088349 -0.841694
v -0.458520 0.073693 -0.852317
v -0.342233 0.081268 -0.858090
v 0.066648 0.059547 -0.907036
v 0.770575 0.068307 -0.919729
v 0.948076 0.059425 -0.806274
v -0.658297 0.086884 -0.767791
v -0.562984 0.085489 -0.779378
v -0.355783 0.077874 -0.811264
v -0.107717 0.077376 -0.813646
v 0.010360 0.081434 -0.816902
v 0.387111 0.061674 -0.786799
v 0.555645 0.059771 -0.733105
v -0.710812 0.084244 -0.638141
v -0.325220 0.053237 -0.722292
v -0.156126 0.070037 -0.743559
v 0.041711 0.104655 -0.750443
v 0.148782 0.097708 -0.709681
v 0.238647 0.056260 -0.792697
v 0.830828 0.109842 -0.723497
v -0.862091 0.060551 -0.740664
v -0.573894 0.099651 -0.672157
v -0.442346 0.073843 -0.744742
v -0.221752 0.050474 -0.655461
v -0.065000 0.098489 -0.666510
v 0.043225 0.105388 -0.693225
v 0.260146 0.058684 -0.695751
v 0.414618 0.074773 -0.656288
v 0.588931 0.062226 -0.710312
v 0.764218 0.108497 -0.743651
v -0.926863 0.086069 -0.557927
v -0.797121 0.083014 -0.573956
v -0.447976 0.085370 -0.692487
v -0.298970 0.050004 -0.604369
v -0.041086 0.093322 -0.517982
v 0.124228 0.057345 -0.579947
v 0.308034 0.052799 -0.620565
v 0.475968 0.071864 -0.619767
v 0.621378 0.078891 -0.573862
v -0.505380 0.088017 -0.641988
v -0.340430 0.083106 -0.568646
v -0.188107 0.051313 -0.548868
v 0.674599 0.085219 -0.610644
v 0.930212 0.058720 -0.614001
v -0.867366 0.100124 -0.410513
v -0.636336 0.087046 -0.480033
v -0.465871 0.112768 -0.531819
v -0.345559 0.089037 -0.486085
v -0.272346 0.080315 -0.421630
v 0.156009 0.055985 -0.511518
v 0.296714 0.059137 -0.468828
v 0.421624 0.096581 -0.466470
v 0.476432 0.090993 -0.489075
v 0.563638 0.076933 -0.533606
v 0.701040 0.075758 -0.470708
v 0.858624 0.055122 -0.469725
v -0.768449 0.088346 -0.392487
v -0.407442 0.104477 -0.498889
v -0.208422 0.066182 -0.386884
v -0.088853 0.073148 -0.368150
v 0.031101 0.089988 -0.402843
v 0.532763 0.092669 -0.422559
v 0.631703 0.078142 -0.410705
v -0.640592 0.062629 -0.315542
v -0.580291 0.083124 -0.426949
v -0.368899 0.094988 -0.393733
v 0.336891 0.082203 -0.363815
v 0.693969 0.086662 -0.352600
v -0.774171 0.091719 -0.246407
v -0.417230 0.095107 -0.311043
v 0.120407 0.096106 -0.377812
v 0.265713 0.084297 -0.294899
v 0.388072 0.080666 -0.398142
v 0.531359 0.106829 -0.332147
v 0.920215 0.062800 -0.245248
v -0.880592 0.074435 -0.197091
v -0.346774 0.112856 -0.285612
v -0.198774 0.058595 -0.220597
v -0.112340 0.063420 -0.230612
v 0.081468 0.081664 -0.255380
v 0.194820 0.081409 -0.230240
v 0.500843 0.093318 -0.245778
v 0.689128 0.083948 -0.222602
v 0.653349 0.080127 -0.295671
v 0.746918 0.093164 -0.268766
v -0.608622 0.055459 -0.190859
v -0.527264 0.052683 -0.197543
v 0.297226 0.108627 -0.204461
v 0.373662 0.118516 -0.229956
v -0.817414 0.095464 -0.130108
v -0.762640 0.087888 -0.168287
v -0.371369 0.042742 -0.081007
v -0.367001 0.098187 -0.214919
v -0.278578 0.095950 -0.118799
v -0.218034 0.088888 -0.046704
v -0.114389 0.075998 -0.114209
v -0.018307 0.077478 -0.172683
v 0.157877 0.084502 -0.174426
v 0.238053 0.101176 -0.141572
v 0.562586 0.079813 -0.186623
v 0.683961 0.084426 -0.175943
v 0.764122 0.108472 -0.137574
v 0.836738 0.096015 -0.135361
v -0.870062 0.068259 -0.050128
v -0.794268 0.119281 -0.070247
v -0.639866 0.080626 -0.069999
v -0.492692 0.048180 -0.106666
v -0.298798 0.044738 0.009718
v -0.051410 0.072205 -0.040104
v 0.109968 0.097881 0.040638
v 0.529761 0.063859 -0.042027
v 0.690341 0.088536 -0.076835
v 0.851423 0.055177 0.102353
v 0.909707 0.051989 0.068290
v -0.566003 0.080761 0.015113
v -0.129258 0.076710 0.016255
v 0.056653 0.088069 0.042787
v 0.304404 0.097373 -0.104035
v 0.347394 0.081782 0.022975
v 0.577391 0.064183 0.012899
v 0.776284 0.068152 0.126805
v -0.730598 0.067756 0.133400
v -0.724413 0.074384 0.068072
v -0.562986 0.099341 0.090593
v -0.390572 0.042636 0.034034
v -0.188701 0.068137 0.104364
v -0.049774 0.092386 0.099082
v 0.490904 0.072876 0.068203
v 0.768569 0.096879 0.029307
v -0.584442 0.080243 0.149854
v -0.435478 0.084171 0.107284
v -0.311105 0.051014 0.127112
v -0.003138 0.092990 0.170084
v 0.210846 0.079483 0.095323
v 0.345256 0.095111 0.151781
v 0.614244 0.087456 0.130827
v 0.708960 0.118166 0.119685
v -0.767456 0.069244 0.189324
v -0.479034 0.097399 0.250556
v -0.128158 0.082579 0.156462
v 0.087208 0.082100 0.159042
v 0.265345 0.084438 0.192569
v 0.425798 0.089266 0.164735
v 0.551344 0.097127 0.184969
v 0.635238 0.101212 0.200594
v 0.722127 0.083525 0.246684
v -0.817760 0.093571 0.365820
v -0.690122 0.107165 0.381789
v -0.674283 0.081668 0.249604
v -0.388431 0.090076 0.264367
v -0.310324 0.089685 0.245102
v -0.147171 0.106742 0.285420
v -0.070200 0.100500 0.251011
v 0.092692 0.070488 0.247717
v 0.170792 0.072657 0.247622
v 0.425467 0.054769 0.370342
v 0.694912 0.082874 0.265345
v -0.579677 0.102304 0.377707
v -0.536866 0.106175 0.415255
v -0.240711 0.098448 0.313718
v 0.039555 0.075209 0.349978
v 0.252739 0.074553 0.309925
v 0.511545 0.062358 0.347630
v 0.631778 0.090233 0.335042
v -0.723101 0.106433 0.440333
v -0.586372 0.100753 0.446955
v -0.478624 0.102661 0.390402
v -0.374681 0.061146 0.406663
v -0.294949 0.060870 0.418007
v -0.174065 0.078630 0.404732
v -0.015618 0.083240 0.365011
v 0.184861 0.074385 0.397265
v -0.115560 0.087572 0.447152
v -0.051095 0.080960 0.415609
v 0.097932 0.088738 0.444748
v 0.334766 0.055223 0.426276
v 0.670745 0.075752 0.484647
v 0.760611 0.082109 0.474240
v -0.806316 0.097524 0.501276
v -0.674158 0.099904 0.538540
v -0.474007 0.126818 0.527146
v -0.379892 0.066396 0.526177
v -0.275040 0.065599 0.471325
v -0.024262 0.069632 0.494124
v 0.121056 0.081371 0.506385
v 0.344863 0.056699 0.495011
v 0.420480 0.057600 0.530700
v 0.589508 0.086076 0.448327
v 0.938949 0.054246 0.511108
v -0.819700 0.100518 0.568034
v -0.558602 0.116411 0.525050
v -0.221114 0.085059 0.561353
v 0.035726 0.084716 0.626208
v 0.111721 0.094635 0.564933
v 0.245653 0.101281 0.586299
v 0.552896 0.086642 0.490860
v 0.656582 0.069380 0.639140
v 0.774726 0.086428 0.569280
v -0.315249 0.109687 0.618299
v -0.090804 0.082682 0.606932
v 0.361790 0.090947 0.646074
v 0.496771 0.097162 0.608174
v 0.731064 0.080059 0.671259
v -0.747701 0.105080 0.573810
v -0.570655 0.099720 0.646323
v -0.436049 0.106240 0.620992
v -0.192939 0.088069 0.728263
v -0.163265 0.084018 0.658255
v -0.047995 0.078876 0.660421
v 0.177349 0.083529 0.691016
v 0.272368 0.065054 0.791703
v 0.822012 0.082320 0.676875
v -0.636839 0.112882 0.660487
v -0.344863 0.104571 0.685533
v -0.040238 0.081225 0.718018
v 0.605128 0.082066 0.743048
v 0.750652 0.095388 0.766024
v -0.523975 0.091468 0.721038
v 0.103159 0.084599 0.793702
v 0.220177 0.069543 0.861494
v 0.452065 0.062246 0.815602
v 0.624805 0.087265 0.840951
v -0.712819 0.085987 0.768387
v -0.360083 0.065835 0.830207
v -0.049466 0.081202 0.775672
v 0.780203 0.096985 0.860928
v 0.918708 0.053170 0.987617
v -0.734024 0.081994 0.852166
v -0.369945 0.057207 0.903053
v 0.475364 0.060236 0.885764
v -1.000000 -0.050269 -1.000000
vn -0.9999 0.0126 0.0006
vn -0.9458 0.3247 0.0019
vn -0.9742 0.2255 -0.0064
vn -0.1481 0.9888 0.0161
vn -0.8600 0.5103 -0.0091
vn -0.6499 0.7599 0.0166
vn -0.6328 0.7730 -0.0444
vn -0.0000 0.0050 -1.0000
vn 0.0013 0.0129 -0.9999
vn 0.0021 0.7994 -0.6007
vn -0.0027 0.3964 -0.9181
vn -0.0101 0.7278 -0.6857
vn 0.0023 0.3146 -0.9492
vn 1.0000 0.0003 -0.0003
vn 0.2533 0.9674 0.0014
vn -0.0015 0.0076 1.0000
vn -0.0000 0.0140 0.9999
vn 0.0217 0.8269 0.5619
vn 0.0350 0.8889 0.4568
vn -0.0208 0.8989 0.4376
vn -0.0003 0.7587 0.6514
vn -0.0117 0.9324 0.3611
vn 0.0017 0.9771 0.2128
vn 0.0265 0.9921 -0.1225
vn -0.0705 0.9901 -0.1216
vn 0.0281 0.9963 -0.0811
vn -0.0157 0.9988 -0.0457
vn -0.0090 0.9748 -0.2228
vn -0.0811 0.9946 0.0642
vn -0.0403 0.9649 -0.2595
vn 0.1249 0.9792 -0.1598
vn -0.0315 0.9925 -0.1183
vn -0.2672 0.9610 -0.0713
vn -0.0008 0.9998 0.0200
vn 0.1271 0.9663 0.2239
vn -0.0592 0.9566 0.2852
vn -0.0358 0.9992 -0.0171
vn -0.0014 0.9914 -0.1311
vn 0.0925 0.9883 -0.1211
vn 0.1755 0.9844 -0.0121
vn -0.0377 0.9906 -0.1312
vn 0.0703 0.9974 -0.0146
vn 0.0461 0.9929 -0.1094
vn -0.0880 0.9912 -0.0993
vn 0.3220 0.9312 -0.1707
vn 0.0105 0.9996 0.0251
vn -0.0529 0.9977 0.0432
vn 0.1177 0.9417 0.3152
vn -0.1446 0.9751 0.1684
vn -0.0005 0.9943 -0.1064
vn -0.2646 0.9628 -0.0547
vn 0.0355 0.9892 -0.1424
vn -0.1132 0.9936 -0.0057
vn 0.2893 0.9065 -0.3074
vn 0.0352 0.9993 -0.0123
vn -0.3264 0.9445 0.0372
vn 0.2790 0.9395 0.1989
vn 0.0264 0.9996 0.0076
vn -0.0438 0.9989 -0.0142
vn -0.0014 0.9999 -0.0170
vn -0.1353 0.9897 0.0462
vn 0.3031 0.9007 -0.3111
vn -0.2033 0.9768 0.0667
vn 0.0851 0.9858 -0.1446
vn 0.1257 0.9882 0.0870
vn -0.0104 0.9652 0.2615
vn 0.1882 0.9780 -0.0897
vn 0.0363 0.9993 0.0023
vn -0.0680 0.9871 0.1448
vn -0.0739 0.9904 0.1165
vn 0.1423 0.9894 -0.0278
vn -0.0914 0.9794 -0.1802
vn 0.1489 0.9773 -0.1507
vn 0.0619 0.9975 0.0336
vn -0.2286 0.9669 0.1130
vn -0.1449 0.9894 0.0102
vn -0.1084 0.9878 0.1122
vn -0.1939 0.9657 0.1730
vn -0.0865 0.9947 0.0556
vn -0.0953 0.9779 -0.1859
vn -0.2133 0.9739 0.0770
vn -0.1416 0.9899 0.0126
vn 0.1952 0.9606 -0.1978
vn 0.2184 0.9758 -0.0140
vn 0.0380 0.9981 0.0477
vn -0.2610 0.9595 0.1056
vn -0.1491 0.9758 0.1598
vn 0.3649 0.9294 -0.0550
vn -0.1028 0.9920 -0.0738
vn 0.0127 0.9988 -0.0470
vn 0.1659 0.9650 -0.2030
vn 0.0186 0.9837 0.1786
vn -0.1431 0.9895 0.0183
vn -0.0469 0.9648 -0.2587
vn 0.2727 0.9525 -0.1357
vn -0.0813 0.9908 -0.1085
vn -0.0063 0.9937 0.1118
vn -0.0889 0.9891 0.1172
vn -0.2222 0.9714 -0.0842
vn 0.1902 0.9704 -0.1488
vn 0.2369 0.9449 -0.2261
vn 0.1751 0.9719 -0.1571
vn -0.3129 0.8982 0.3087
vn -0.0395 0.9988 0.0299
vn -0.1641 0.9816 -0.0976
vn -0.2776 0.9604 -0.0220
vn 0.2235 0.9668 -0.1241
vn 0.0431 0.9990 0.0081
vn -0.0982 0.9932 -0.0621
vn -0.1840 0.9776 -0.1018
vn 0.1253 0.9890 0.0790
vn -0.2300 0.9728 -0.0255
vn 0.2161 0.9644 0.1523
vn 0.0559 0.9576 0.2826
vn -0.0237 0.9997 -0.0030
vn 0.0457 0.9908 0.1272
vn -0.0355 0.9891 -0.1430
vn 0.0406 0.9933 0.1082
vn 0.0620 0.9963 -0.0596
vn -0.8116 0.5740 -0.1089
vn -0.1507 0.9862 -0.0685
vn -0.1529 0.9874 -0.0401
vn 0.1219 0.9924 0.0189
vn -0.1764 0.9796 0.0967
vn 0.0933 0.9905 -0.1009
vn 0.5725 0.7976 0.1897
vn 0.1249 0.9907 -0.0535
vn 0.2575 0.9177 -0.3025
vn 0.0566 0.9974 -0.0457
vn 0.0981 0.9838 0.1500
vn -0.1231 0.9922 0.0184
vn -0.0170 0.9807 -0.1949
vn 0.5794 0.7487 -0.3220
vn 0.1459 0.9582 0.2462
vn 0.5780 0.8005 0.1584
vn -0.0987 0.9816 -0.1634
vn -0.0712 0.9930 -0.0947
vn 0.0901 0.9938 -0.0644
vn -0.0040 0.9993 -0.0364
vn -0.0028 0.9828 -0.1846
vn -0.1155 0.9932 0.0141
vn 0.0449 0.9852 0.1654
vn 0.0364 0.9821 -0.1851
vn 0.0814 0.9924 0.0923
vn -0.2076 0.9658 0.1556
vn 0.0453 0.9982 0.0380
vn -0.1009 0.9948 0.0125
vn 0.0862 0.9956 -0.0377
vn -0.2980 0.9369 0.1826
vn -0.0278 0.9996 -0.0089
vn 0.0742 0.9909 0.1123
vn -0.1751 0.9845 -0.0139
vn -0.1201 0.9926 -0.0188
vn 0.0096 0.9785 0.2060
vn -0.0536 0.9985 0.0074
vn -0.0426 0.9953 0.0874
vn 0.5317 0.8308 -0.1647
vn -0.1003 0.9924 -0.0709
vn 0.1876 0.9811 0.0469
vn -0.0932 0.9954 -0.0205
vn 0.0942 0.9930 0.0716
vn -0.0051 0.9989 -0.0458
vn -0.1887 0.9736 -0.1281
vn -0.1185 0.9862 -0.1154
vn 0.1927 0.9813 0.0002
vn 0.1037 0.9933 0.0505
vn 0.0486 0.9978 -0.0450
vn -0.0351 0.9137 -0.4048
vn -0.0145 0.9088 -0.4169
vn 0.0014 0.9935 -0.1141
vn 0.1819 0.9655 -0.1865
vn -0.1381 0.9305 -0.3392
vn -0.2701 0.9389 -0.2134
vn 0.1724 0.9850 -0.0059
vn 0.0670 0.9973 -0.0293
vn -0.0327 0.9954 0.0898
vn 0.0086 0.9850 0.1726
vn -0.0019 0.9848 0.1739
vn 0.0769 0.9910 0.1093
vn 0.0421 0.9983 -0.0399
vn -0.0154 0.9991 -0.0387
vn -0.0073 0.9853 0.1707
vn -0.0797 0.9865 -0.1431
vn -0.0149 0.9875 -0.1567
vn 0.0312 0.9647 0.2616
vn 0.1448 0.9884 0.0447
vn -0.0855 0.9957 -0.0357
vn 0.1842 0.9822 -0.0364
vn -0.0990 0.9927 0.0694
vn 0.0391 0.9628 0.2675
vn -0.0154 0.9819 0.1889
vn -0.1543 0.9848 0.0795
vn -0.0628 0.9980 0.0028
vn 0.2895 0.9571 0.0145
vn -0.0182 0.9989 0.0430
vn 0.0015 0.9922 0.1248
vn 0.0415 0.9881 0.1478
vn -0.0941 0.9596 0.2650
vn -0.0171 0.9958 -0.0901
vn 0.0201 0.9837 -0.1786
vn -0.0063 0.9844 -0.1758
vn 0.0016 1.0000 0.0020
vn -0.0551 0.9985 -0.0013
vn 0.0339 0.9929 -0.1144
vn 0.0697 0.9971 -0.0309
vn 0.0303 0.9995 0.0065
vn 0.0287 0.9992 0.0269
vn 0.0434 0.9980 -0.0460
vn 0.0336 0.9990 0.0292
vn 0.0128 0.9999 -0.0059
vn 0.0323 0.9995 0.0036
vn -0.0699 0.9948 0.0735
vn -0.0003 0.9996 0.0280
vn -0.0421 0.9886 0.1445
vn -0.0426 0.9983 0.0387
vn -0.1530 0.9881 0.0162
vn -0.2400 0.9670 0.0852
vn -0.1912 0.9761 -0.1036
vn -1.0000 0.0001 -0.0023
vn -1.0000 0.0004 -0.0000
vn -0.9862 0.1656 0.0006
vn -0.9841 0.1775 0.0001
vn -0.9608 0.2760 -0.0272
vn -0.9036 0.4285 0.0007
vn 0.0002 0.0023 -1.0000
vn 0.0003 -0.0226 -0.9997
vn 0.0062 0.2695 -0.9630
vn 0.9959 0.0899 -0.0004
vn 1.0000 0.0050 -0.0000
vn 1.0000 0.0066 -0.0003
vn 0.0565 0.9984 -0.0002
vn -0.0037 0.5003 0.8658
vn 0.0064 0.1284 0.9917
vn -0.0000 0.0011 1.0000
vn -0.0019 0.6947 0.7193
vn 0.0780 0.9922 -0.0977
vn -0.0494 0.9985 0.0218
vn 0.0165 0.9997 0.0155
vn 0.1008 0.9948 -0.0165
vn -0.0961 0.9952 0.0206
vn 0.0027 0.9973 0.0731
vn 0.0344 0.9991 -0.0230
vn 0.0185 0.9996 -0.0227
vn -0.1450 0.9894 0.0074
vn 0.1548 0.9274 -0.3406
vn 0.0030 0.9943 0.1062
vn -0.1695 0.9750 -0.1438
vn 0.0471 0.9742 -0.2207
vn 0.2166 0.9395 -0.2654
vn -0.1186 0.9926 -0.0278
vn 0.1502 0.9687 -0.1975
vn -0.0775 0.9839 0.1607
vn -0.2447 0.9672 -0.0677
vn 0.1607 0.9666 0.1998
vn 0.3401 0.9352 -0.0988
vn -0.0824 0.9932 -0.0823
vn 0.4197 0.9067 0.0423
vn 0.0065 0.9907 -0.1360
vn 0.1269 0.9876 0.0925
vn 0.0594 0.9550 0.2906
vn 0.0779 0.9956 -0.0515
vn -0.0105 0.9929 -0.1188
vn 0.0038 0.9846 0.1748
vn 0.3985 0.8556 -0.3304
vn -0.0093 0.9999 -0.0049
vn -0.2115 0.9756 0.0591
vn 0.1474 0.9764 -0.1575
vn 0.0112 0.9950 -0.0994
vn -0.0323 0.9992 -0.0243
vn 0.3726 0.9149 -0.1552
vn -0.2966 0.9536 -0.0523
vn -0.3104 0.9490 0.0558
vn 0.1878 0.9799 -0.0678
vn -0.0095 0.9991 -0.0424
vn -0.1885 0.9805 -0.0550
vn 0.0876 0.9879 -0.1282
vn 0.1135 0.9915 0.0636
vn -0.0635 0.9948 0.0793
vn 0.0697 0.9640 -0.2565
vn 0.1269 0.9907 -0.0492
vn -0.0953 0.9803 0.1731
vn 0.3138 0.9283 -0.1997
vn 0.0320 0.9957 -0.0874
vn -0.0428 0.9944 -0.0966
vn -0.1105 0.9890 0.0979
vn 0.1024 0.9885 -0.1116
vn -0.0294 0.9995 0.0064
vn 0.1082 0.9829 0.1487
vn 0.2423 0.9702 -0.0013
vn 0.0139 0.9587 -0.2840
vn -0.0593 0.9968 0.0541
vn 0.0523 0.9916 -0.1184
vn 0.1558 0.9831 -0.0960
vn -0.0477 0.9944 -0.0947
vn 0.1299 0.9880 -0.0834
vn 0.1215 0.9924 -0.0182
vn -0.0511 0.9982 -0.0313
vn 0.2030 0.9744 -0.0966
vn -0.1117 0.9893 0.0940
vn -0.0925 0.9919 0.0876
vn 0.3120 0.9500 -0.0116
vn 0.1382 0.9878 -0.0717
vn 0.1932 0.9811 0.0069
vn -0.0655 0.9871 0.1461
vn -0.2018 0.9721 -0.1194
vn 0.0963 0.9787 -0.1814
vn 0.0064 0.9954 0.0959
vn 0.1932 0.9774 -0.0857
vn -0.1668 0.9652 -0.2016
vn 0.2607 0.9490 -0.1773
vn -0.1293 0.9893 0.0676
vn -0.2821 0.9522 0.1169
vn -0.0398 0.9992 0.0025
vn -0.2085 0.9602 -0.1857
vn -0.2004 0.9520 -0.2314
vn 0.0506 0.9838 0.1718
vn -0.0181 0.9889 -0.1474
vn 0.0370 0.9987 0.0354
vn -0.2170 0.9044 0.3674
vn -0.0442 0.9964 0.0718
vn -0.1426 0.9786 -0.1486
vn -0.2312 0.9674 -0.1029
vn 0.1965 0.9803 0.0187
vn 0.1241 0.9757 0.1806
vn -0.2696 0.9622 -0.0397
vn 0.1715 0.9757 -0.1363
vn -0.3773 0.9237 0.0659
vn -0.5739 0.8126 -0.1014
vn -0.1026 0.9372 -0.3332
vn 0.0373 0.9987 0.0353
vn -0.4377 0.8357 0.3317
vn 0.1009 0.9943 -0.0349
vn 0.0104 0.9991 0.0423
vn 0.0716 0.9968 0.0368
vn 0.4964 0.8602 0.1171
vn 0.3217 0.9381 0.1283
vn -0.4078 0.7878 0.4617
vn 0.2379 0.9488 -0.2079
vn 0.1759 0.9722 -0.1542
vn 0.0973 0.9937 0.0550
vn 0.0336 0.9986 0.0417
vn -0.0786 0.9950 0.0623
vn -0.2035 0.9763 0.0732
vn 0.2004 0.9266 -0.3181
vn -0.1143 0.9894 0.0896
vn -0.1637 0.9850 -0.0549
vn -0.4220 0.8631 0.2775
vn -0.0603 0.9873 0.1473
vn -0.0462 0.9887 -0.1428
vn 0.1050 0.9849 0.1377
vn 0.0787 0.9955 -0.0537
vn -0.0584 0.9979 0.0285
vn -0.0480 0.9977 -0.0488
vn -0.0380 0.9976 -0.0573
vn -0.1996 0.9791 -0.0394
vn 0.0267 0.9993 -0.0261
vn -0.0717 0.9920 -0.1038
vn -0.0210 0.9821 -0.1872
vn -0.3244 0.8504 -0.4143
vn -0.0773 0.9937 -0.0815
vn -0.0848 0.9641 -0.2516
vn -0.3246 0.9283 0.1816
vn 0.3104 0.8959 -0.3177
vn -0.1548 0.9836 -0.0928
vn -0.1787 0.9809 -0.0764
vn 0.0892 0.9901 -0.1079
vn -0.0312 0.9817 -0.1877
vn -0.0125 0.9817 -0.1898
vn -0.2808 0.9386 0.2003
vn -0.0848 0.9835 -0.1597
vn -0.0078 0.9817 -0.1903
vn -0.0888 0.9916 -0.0941
vn 0.0276 0.9964 0.0802
vn 0.1333 0.9837 0.1206
vn 0.1758 0.9829 0.0554
vn -0.0325 0.9807 0.1929
vn -0.1131 0.9238 0.3659
vn -0.0333 0.9973 -0.0648
vn -0.0969 0.9949 -0.0287
vn 0.1833 0.9812 0.0608
vn -0.0696 0.9817 0.1771
vn -0.0801 0.9940 0.0751
vn 0.0131 0.9838 0.1790
vn 0.1045 0.9945 -0.0103
vn -0.1003 0.9940 -0.0441
vn 0.0441 0.9983 -0.0377
vn 0.3455 0.9256 0.1548
vn 0.1605 0.9865 -0.0322
vn -0.0182 0.9741 0.2254
vn 0.1211 0.9884 0.0916
vn 0.0177 0.9992 -0.0369
vn -0.0155 0.9998 -0.0101
vn 0.1097 0.9901 0.0872
vn -0.2306 0.9718 -0.0504
vn 0.2116 0.9769 -0.0297
vn 0.1266 0.9867 0.1020
vn 0.0497 0.9987 -0.0084
vn 0.0402 0.9988 0.0263
vn -0.4473 0.8900 0.0881
vn -0.2644 0.9503 0.1643
vn -0.0546 0.9983 0.0208
vn 0.0892 0.9769 -0.1944
vn 0.0640 0.9817 -0.1796
vn 0.1707 0.9840 0.0508
vn -0.0076 0.9983 -0.0570
vn 0.0392 0.9981 0.0468
vn -0.0146 0.9847 -0.1735
vn 0.3741 0.9271 -0.0244
vn -0.0880 0.9828 0.1625
vn -0.1902 0.9769 -0.0972
vn 0.1461 0.9850 0.0922
vn 0.1170 0.9931 -0.0119
vn -0.0050 0.9998 -0.0187
vn -0.2138 0.9714 -0.1030
vn -0.1218 0.9860 -0.1143
vn -0.1935 0.9776 -0.0826
vn -0.1561 0.9777 -0.1405
vn -0.0790 0.9831 -0.1652
vn 0.0080 0.9995 0.0294
vn 0.1021 0.9331 -0.3448
vn -0.0128 0.9748 -0.2229
vn 0.1737 0.9833 -0.0537
vn 0.0827 0.9949 0.0580
vn -0.0745 0.9966 -0.0342
vn -0.1314 0.9911 0.0196
vn -0.0429 0.9717 -0.2322
vn -0.1263 0.9844 0.1229
vn 0.5397 0.8412 -0.0338
vn -0.0571 0.9825 0.1771
vn -0.1269 0.9847 0.1194
vn 0.2215 0.9736 -0.0549
vn 0.0183 0.9998 -0.0002
vn 0.0439 0.9984 0.0359
vn -0.0305 0.9950 0.0952
vn -0.0416 0.9932 0.1092
vn -0.0687 0.9900 0.1230
vn 0.1773 0.9836 -0.0323
vn -0.0279 0.9983 0.0504
vn -0.1271 0.9821 0.1391
vn -0.0438 0.9952 0.0876
vn 0.1349 0.9565 -0.2586
vn -0.0245 0.9919 0.1249
vn -0.0158 0.9998 -0.0147
vn 0.0454 0.9979 -0.0468
vn 0.0013 0.9861 0.1663
vn -0.0546 0.9865 0.1543
vn -0.0661 0.9860 -0.1531
vn -0.0596 0.9977 0.0325
vn 0.1926 0.9812 -0.0119
vn -0.0198 0.9663 0.2566
vn 0.0453 0.9989 0.0076
vn 0.0291 0.9995 -0.0117
vn 0.0944 0.9939 0.0578
vn -0.1398 0.9899 -0.0245
vn 0.1158 0.9919 -0.0527
vn 0.0828 0.9898 0.1163
vn -0.1018 0.9903 0.0949
vn -0.0272 0.9926 0.1185
vn -0.0461 0.9975 0.0540
vn -0.0407 0.9865 0.1584
vn 0.0415 0.9977 -0.0543
vn -0.0243 0.9963 -0.0826
vn -0.0420 0.9905 -0.1306
vn -0.0675 0.9885 -0.1352
vn 0.0148 0.9963 -0.0844
vn -0.0220 0.9993 -0.0290
vn -0.1151 0.9910 -0.0681
vn 0.0378 0.9918 -0.1220
vn 0.0961 0.9951 -0.0238
vn 0.1167 0.9930 -0.0161
vn 0.0627 0.9980 -0.0002
vn 0.0051 0.9468 0.3219
vn -0.1068 0.9837 0.1448
vn 0.0967 0.9952 0.0160
vn 0.0806 0.9946 0.0653
vn 0.0038 0.9969 0.0781
vn -0.1568 0.9872 -0.0292
vn -0.0671 0.9963 0.0537
vn -0.0742 0.9961 0.0472
vn -0.2251 0.9689 0.1027
vn -0.1399 0.9894 -0.0379
vn -0.0616 0.9853 -0.1594
vn -0.0000 -1.0000 -0.0000
vt 0.625000 0.000000
vt 0.401412 0.251898
vt 0.397476 0.057393
vt 0.375176 0.219309
vt 0.375524 0.160718
vt 0.376737 0.000050
vt 0.375000 0.020257
vt 0.375000 0.115533
vt 0.375000 0.092114
vt 0.375000 0.045677
vt 0.625000 0.250000
vt 0.625000 0.500000
vt 0.375344 0.422861
vt 0.375527 0.499744
vt 0.375055 0.500233
vt 0.375000 0.457891
vt 0.374964 0.392214
vt 0.375000 0.339619
vt 0.375000 0.318520
vt 0.375000 0.281447
vt 0.375084 0.569582
vt 0.625000 0.750000
vt 0.375019 0.749973
vt 0.375000 0.627804
vt 0.372417 0.599388
vt 0.375173 0.808970
vt 0.391889 0.950639
vt 0.376707 0.999746
vt 0.375000 0.986864
vt 0.375000 0.952648
vt 0.375000 0.923201
vt 0.375000 0.893687
vt 0.374982 0.859839
vt 0.375000 0.762056
vt 0.193502 0.499879
vt 0.192903 0.515625
vt 0.175272 0.527549
vt 0.207276 0.515858
vt 0.265849 0.502090
vt 0.286753 0.508025
vt 0.261776 0.514600
vt 0.313199 0.513409
vt 0.280464 0.525319
vt 0.328796 0.517037
vt 0.348490 0.509974
vt 0.343044 0.532767
vt 0.138301 0.510416
vt 0.152397 0.510868
vt 0.141682 0.531508
vt 0.254569 0.524487
vt 0.235949 0.519823
vt 0.299433 0.527092
vt 0.321002 0.538748
vt 0.164063 0.527516
vt 0.158069 0.545239
vt 0.166171 0.516457
vt 0.204819 0.523438
vt 0.209469 0.536060
vt 0.191397 0.525967
vt 0.233688 0.534814
vt 0.285679 0.537100
vt 0.170691 0.541770
vt 0.185642 0.540148
vt 0.211143 0.549227
vt 0.247801 0.542278
vt 0.273438 0.535435
vt 0.259197 0.540811
vt 0.261989 0.531250
vt 0.318175 0.530703
vt 0.301875 0.546617
vt 0.148365 0.556117
vt 0.220954 0.543765
vt 0.250568 0.559885
vt 0.267451 0.552947
vt 0.287086 0.549258
vt 0.313552 0.547908
vt 0.331932 0.555588
vt 0.215069 0.500252
vt 0.176461 0.558083
vt 0.180907 0.548131
vt 0.200652 0.554688
vt 0.223787 0.556168
vt 0.274276 0.560260
vt 0.324590 0.561935
vt 0.164063 0.566265
vt 0.153395 0.574468
vt 0.186362 0.564756
vt 0.237507 0.578565
vt 0.312500 0.565147
vt 0.374447 0.536788
vt 0.360854 0.567378
vt 0.365386 0.546951
vt 0.173345 0.574260
vt 0.253054 0.572988
vt 0.343750 0.567879
vt 0.335993 0.574966
vt 0.169766 0.586258
vt 0.195253 0.579817
vt 0.197838 0.566535
vt 0.210969 0.572314
vt 0.298921 0.578275
vt 0.289527 0.581445
vt 0.288670 0.564412
vt 0.320313 0.575530
vt 0.317025 0.584694
vt 0.281441 0.590164
vt 0.270510 0.577974
vt 0.304688 0.570953
vt 0.343667 0.584734
vt 0.337032 0.590250
vt 0.140615 0.576907
vt 0.151850 0.595012
vt 0.138001 0.601371
vt 0.191023 0.589619
vt 0.181601 0.601396
vt 0.259962 0.593573
vt 0.235104 0.596555
vt 0.286213 0.601555
vt 0.311084 0.600908
vt 0.351562 0.599672
vt 0.365243 0.590894
vt 0.171432 0.600706
vt 0.201257 0.598578
vt 0.210047 0.593750
vt 0.218747 0.610524
vt 0.226331 0.598363
vt 0.247245 0.604571
vt 0.273438 0.596879
vt 0.266533 0.603058
vt 0.296875 0.602468
vt 0.334428 0.601474
vt 0.322716 0.600081
vt 0.153415 0.606540
vt 0.145182 0.609375
vt 0.226563 0.619427
vt 0.237676 0.609375
vt 0.285447 0.614333
vt 0.275881 0.610381
vt 0.343750 0.611831
vt 0.351562 0.613254
vt 0.167992 0.615681
vt 0.151761 0.615343
vt 0.185048 0.612940
vt 0.210938 0.629108
vt 0.242327 0.621404
vt 0.265542 0.632388
vt 0.335938 0.620763
vt 0.335000 0.609676
vt 0.201246 0.631156
vt 0.172323 0.627731
vt 0.203017 0.619382
vt 0.257267 0.632602
vt 0.315411 0.621372
vt 0.295886 0.632384
vt 0.320813 0.625698
vt 0.359375 0.639137
vt 0.351563 0.643075
vt 0.156577 0.633139
vt 0.234375 0.627582
vt 0.227106 0.638686
vt 0.242188 0.639166
vt 0.276289 0.638839
vt 0.309527 0.633600
vt 0.179688 0.635877
vt 0.170579 0.642556
vt 0.210938 0.641065
vt 0.235752 0.646128
vt 0.259726 0.645955
vt 0.250000 0.646986
vt 0.296875 0.646907
vt 0.343005 0.629323
vt 0.341638 0.640625
vt 0.191403 0.640195
vt 0.183441 0.657148
vt 0.205924 0.655909
vt 0.240043 0.660640
vt 0.283978 0.648793
vt 0.330095 0.640886
vt 0.320570 0.651222
vt 0.335622 0.657814
vt 0.328125 0.648438
vt 0.343750 0.656387
vt 0.149613 0.648438
vt 0.140555 0.668104
vt 0.125239 0.657760
vt 0.167664 0.665096
vt 0.195955 0.657288
vt 0.227038 0.664830
vt 0.273438 0.657132
vt 0.304688 0.648498
vt 0.304686 0.675757
vt 0.161494 0.651808
vt 0.154407 0.664429
vt 0.282772 0.664062
vt 0.327578 0.667893
vt 0.312500 0.670732
vt 0.153118 0.673465
vt 0.179688 0.676350
vt 0.168480 0.679746
vt 0.187145 0.672327
vt 0.218750 0.665229
vt 0.210938 0.677841
vt 0.271667 0.672329
vt 0.264838 0.658452
vt 0.294094 0.679119
vt 0.146504 0.687251
vt 0.226563 0.677764
vt 0.212986 0.686349
vt 0.250014 0.671926
vt 0.262112 0.679688
vt 0.245119 0.679688
vt 0.161707 0.693983
vt 0.203030 0.689099
vt 0.187500 0.700911
vt 0.234375 0.683099
vt 0.220963 0.695605
vt 0.264845 0.687500
vt 0.305269 0.688335
vt 0.335938 0.686901
vt 0.325922 0.683974
vt 0.147589 0.699335
vt 0.177638 0.697194
vt 0.245910 0.686734
vt 0.238591 0.700790
vt 0.335257 0.706239
vt 0.175759 0.714816
vt 0.154868 0.701743
vt 0.208919 0.705942
vt 0.195356 0.706975
vt 0.254553 0.702321
vt 0.293981 0.706596
vt 0.276718 0.698807
vt 0.315388 0.705457
vt 0.320171 0.687925
vt 0.231838 0.710938
vt 0.225025 0.722714
vt 0.272708 0.714232
vt 0.245232 0.710938
vt 0.285475 0.726225
vt 0.204333 0.718750
vt 0.246297 0.718750
vt 0.303831 0.726449
vt 0.343750 0.709848
vt 0.343064 0.723854
vt 0.352571 0.711126
vt 0.208129 0.734257
vt 0.278699 0.736864
vt 0.326685 0.732049
vt 0.325672 0.717267
vt 0.365795 0.684662
vt 0.344498 0.734306
vt 0.127705 0.703844
vt 0.156924 0.741673
vt 0.125209 0.730102
vt 0.187181 0.725351
vt 0.162746 0.728868
vt 0.158509 0.713381
vt 0.244350 0.726702
vt 0.310304 0.736653
vt 0.363496 0.748443
vt 0.265212 0.750048
vt 0.231850 0.748550
vt 0.265548 0.727502
vt 0.156447 0.500000
vt 0.125932 0.500000
vt 0.297223 0.500000
vt 0.332891 0.500000
vt 0.366009 0.523119
vt 0.367188 0.633635
vt 0.293289 0.748659
vt 0.204857 0.742188
vt 0.201799 0.750000
vt 0.172352 0.749969
vt 0.138136 0.747102
vt 0.125000 0.750000
vt 0.125000 0.589314
vt 0.124931 0.634453
vt 0.125000 0.560593
vt 0.132812 0.555073
vt 0.125000 0.530574
vt 0.374986 0.241945
vt 0.375319 0.251223
vt 0.375000 0.189407
vt 0.625000 1.000000
vt 0.375003 0.831476
vt 0.351623 0.537394
vt 0.337599 0.551068
vt 0.224204 0.577777
vt 0.138185 0.621262
vt 0.154836 0.641329
vt 0.257812 0.669487
vt 0.203125 0.676529
vt 0.345531 0.685193
vt 0.295414 0.687500
vt 0.260911 0.695524
vt 0.351366 0.697441
vt 0.125000 0.508040
vt 0.316182 0.750000
vt 0.875000 0.500000
vt 0.875000 0.750000
s 0
f 29/1/1 28/3/1 30/2/1
f 28/3/2 5/5/2 3/4/2
f 1/6/3 9/7/3 28/3/3
f 28/3/4 6/8/4 5/5/4
f 28/3/5 7/9/5 6/8/5
f 28/3/6 8/10/6 7/9/6
f 9/7/7 8/10/7 28/3/7
f 271/11/8 11/13/8 31/12/8
f 11/13/9 20/14/9 31/12/9
f 11/13/10 10/16/10 20/15/10
f 30/2/11 13/18/11 12/17/11
f 30/2/12 37/19/12 13/18/12
f 30/2/13 14/20/13 37/19/13
f 18/21/14 32/23/14 33/22/14
f 18/21/15 17/25/15 16/24/15
f 32/23/16 27/26/16 33/22/16
f 33/22/17 27/26/17 34/27/17
f 34/27/18 21/29/18 1/28/18
f 34/27/19 22/30/19 21/29/19
f 23/31/20 22/30/20 34/27/20
f 24/32/21 23/31/21 34/27/21
f 25/33/22 24/32/22 34/27/22
f 32/23/23 267/34/23 27/26/23
f 37/35/24 48/37/24 42/36/24
f 43/38/25 37/35/25 42/36/25
f 12/39/26 44/41/26 38/40/26
f 39/42/27 38/40/27 59/43/27
f 40/44/28 70/46/28 45/45/28
f 35/47/29 61/49/29 36/48/29
f 44/41/30 50/51/30 51/50/30
f 44/41/31 51/50/31 59/43/31
f 39/42/32 59/43/32 52/52/32
f 70/46/33 40/44/33 69/53/33
f 47/54/34 41/56/34 54/55/34
f 49/57/35 63/59/35 55/58/35
f 49/57/36 55/58/36 56/60/36
f 52/52/37 59/43/37 67/61/37
f 48/37/38 47/54/38 62/62/38
f 48/37/39 62/62/39 73/63/39
f 55/58/40 63/59/40 74/64/40
f 51/50/41 50/51/41 65/65/41
f 58/66/42 57/68/42 66/67/42
f 52/52/43 68/70/43 53/69/43
f 54/55/44 61/49/44 72/71/44
f 63/59/45 73/63/45 74/64/45
f 64/72/46 55/58/46 74/64/46
f 65/65/47 75/73/47 66/67/47
f 58/66/48 66/67/48 76/74/48
f 67/61/49 77/75/49 68/70/49
f 69/53/50 53/69/50 78/76/50
f 70/46/51 69/53/51 79/77/51
f 50/51/52 44/41/52 13/78/52 43/38/52
f 62/62/53 54/55/53 87/79/53
f 62/62/54 87/79/54 80/80/54
f 73/63/55 80/80/55 81/81/55
f 56/60/56 82/82/56 65/65/56
f 76/74/57 66/67/57 75/73/57
f 77/75/58 76/74/58 90/83/58
f 79/77/59 78/76/59 94/84/59
f 54/55/60 97/86/60 86/85/60
f 54/55/61 86/85/61 87/79/61
f 80/80/62 87/79/62 98/87/62
f 65/65/63 100/88/63 75/73/63
f 78/76/64 93/89/64 94/84/64
f 19/90/65 84/92/65 96/91/65
f 87/79/66 105/93/66 98/87/66
f 75/73/67 101/94/67 90/83/67
f 79/77/68 103/96/68 95/95/68
f 86/85/69 104/97/69 105/93/69
f 98/87/70 105/93/70 106/98/70
f 88/99/71 106/98/71 89/100/71
f 113/101/72 91/103/72 107/102/72
f 93/89/73 114/105/73 102/104/73
f 107/102/74 111/107/74 112/106/74
f 92/108/75 113/101/75 114/105/75
f 108/109/76 103/96/76 124/110/76
f 85/111/77 116/113/77 109/112/77
f 105/93/78 127/115/78 110/114/78
f 100/88/79 119/117/79 120/116/79
f 113/101/80 107/102/80 128/118/80
f 114/105/81 113/101/81 122/119/81
f 108/109/82 124/110/82 125/120/82
f 108/109/83 125/120/83 115/121/83
f 97/86/84 109/112/84 126/122/84
f 127/115/85 104/97/85 126/122/85
f 110/114/86 127/115/86 133/123/86
f 117/124/87 133/123/87 134/125/87
f 117/124/88 134/125/88 118/126/88
f 120/116/89 119/117/89 137/127/89
f 120/116/90 138/129/90 121/128/90
f 113/101/91 129/130/91 122/119/91
f 123/131/92 114/105/92 140/132/92
f 124/110/93 123/131/93 125/120/93
f 131/133/94 116/113/94 130/134/94
f 118/126/95 134/125/95 135/135/95
f 137/127/96 119/117/96 136/136/96
f 128/118/97 139/138/97 158/137/97
f 128/118/98 158/137/98 129/130/98
f 125/120/99 123/131/99 142/139/99
f 125/120/100 143/140/100 115/121/100
f 131/133/101 145/142/101 146/141/101
f 126/122/102 146/141/102 147/143/102
f 133/123/103 148/144/103 134/125/103
f 137/127/104 149/145/104 138/129/104
f 138/129/105 150/146/105 139/138/105
f 142/139/106 141/148/106 152/147/106
f 147/143/107 155/150/107 165/149/107
f 132/151/108 147/143/108 165/149/108
f 138/129/109 149/145/109 157/152/109
f 150/146/110 138/129/110 157/152/110
f 151/153/111 158/137/111 159/154/111
f 141/148/112 160/155/112 152/147/112
f 153/156/113 143/140/113 161/157/113
f 155/150/114 145/142/114 163/158/114
f 148/144/115 132/151/115 165/149/115
f 135/135/116 166/160/116 156/159/116
f 157/152/117 149/145/117 167/161/117
f 159/154/118 158/137/118 174/162/118
f 151/153/119 168/163/119 160/155/119
f 164/164/120 155/150/120 170/165/120
f 166/160/121 148/144/121 172/166/121
f 167/161/122 156/159/122 180/167/122
f 157/152/123 173/169/123 181/168/123
f 157/152/124 181/168/124 150/146/124
f 159/154/125 175/170/125 168/163/125
f 169/171/126 177/172/126 161/157/126
f 164/164/127 179/174/127 171/173/127
f 165/149/128 191/175/128 172/166/128
f 167/161/129 193/176/129 173/169/129
f 174/162/130 150/146/130 181/168/130
f 175/170/131 174/162/131 182/177/131
f 176/178/132 168/163/132 184/179/132
f 176/178/133 185/181/133 197/180/133
f 177/172/134 197/180/134 186/182/134
f 161/157/135 177/172/135 186/182/135
f 178/183/136 7/185/136 187/184/136
f 179/174/137 170/165/137 198/186/137
f 171/173/138 179/174/138 190/187/138
f 191/175/139 171/173/139 190/187/139
f 180/167/140 192/188/140 193/176/140
f 174/162/141 195/189/141 182/177/141
f 183/190/142 175/170/142 196/191/142
f 189/192/143 188/193/143 198/186/143
f 196/191/144 182/177/144 202/194/144
f 184/179/145 203/196/145 204/195/145
f 198/186/146 188/193/146 205/197/146
f 199/198/147 198/186/147 206/199/147
f 190/187/148 179/174/148 207/200/148
f 191/175/149 209/202/149 200/201/149
f 195/189/150 194/204/150 212/203/150
f 196/191/151 202/194/151 216/205/151
f 187/184/152 7/185/152 219/206/152
f 187/184/153 219/206/153 205/197/153
f 200/201/154 223/208/154 210/207/154
f 211/209/155 214/211/155 215/210/155
f 205/197/156 219/206/156 220/212/156
f 207/200/157 221/214/157 222/213/157
f 213/215/158 210/207/158 232/216/158
f 212/203/159 215/210/159 225/217/159
f 203/196/160 196/191/160 227/218/160
f 217/219/161 204/195/161 228/220/161
f 219/206/162 230/221/162 220/212/162
f 199/198/163 206/199/163 231/222/163
f 221/214/164 199/198/164 231/222/164
f 224/223/165 213/215/165 240/224/165
f 217/219/166 228/220/166 237/225/166
f 220/212/167 244/227/167 245/226/167
f 222/213/168 246/229/168 239/228/168
f 232/216/169 222/213/169 239/228/169
f 233/230/170 224/223/170 240/224/170
f 227/218/171 235/232/171 241/231/171
f 227/218/172 241/231/172 242/233/172
f 236/234/173 227/218/173 242/233/173
f 236/234/174 242/233/174 237/225/174
f 232/216/175 247/236/175 248/235/175
f 233/230/176 249/238/176 250/237/176
f 235/232/177 250/237/177 251/239/177
f 235/232/178 251/239/178 241/231/178
f 247/236/179 239/228/179 254/240/179
f 248/235/180 247/236/180 255/241/180
f 250/237/181 249/238/181 255/241/181
f 241/231/182 251/239/182 261/242/182
f 243/243/183 237/225/183 257/244/183
f 243/243/184 257/244/184 252/245/184
f 254/240/185 264/246/185 247/236/185
f 251/239/186 250/237/186 260/247/186
f 257/244/187 256/249/187 262/248/187
f 229/250/188 252/245/188 266/251/188
f 8/252/189 9/254/189 268/253/189
f 258/255/190 253/257/190 263/256/190
f 247/236/191 264/246/191 265/258/191
f 261/242/192 270/259/192 262/248/192
f 257/244/193 262/248/193 266/251/193
f 229/250/194 266/251/194 267/260/194
f 263/256/195 268/253/195 258/255/195
f 265/258/196 24/262/196 25/261/196
f 260/247/197 259/263/197 25/261/197
f 262/248/198 270/259/198 266/251/198
f 14/264/199 15/265/199 35/47/199
f 14/264/200 41/56/200 37/35/200
f 13/78/201 37/35/201 43/38/201
f 11/266/202 12/39/202 38/40/202
f 10/267/203 11/266/203 39/42/203
f 10/267/204 40/44/204 45/45/204
f 20/14/205 45/45/205 46/268/205
f 46/268/206 84/92/206 19/90/206
f 18/21/207 19/90/207 96/91/207
f 96/91/208 115/121/208 18/21/208
f 16/24/209 17/25/209 154/269/209
f 154/269/210 229/250/210 16/24/210
f 32/23/211 229/250/211 267/260/211
f 260/247/212 25/261/212 26/270/212
f 269/271/213 23/272/213 24/262/213
f 268/253/214 21/274/214 22/273/214
f 9/254/215 1/275/215 21/274/215
f 5/276/216 6/277/216 116/113/216
f 4/278/217 5/276/217 85/111/217
f 71/279/218 3/280/218 4/278/218
f 1/6/219 28/3/219 29/1/219
f 29/1/220 30/2/220 271/11/220
f 3/4/221 30/2/221 28/3/221
f 2/281/222 30/2/222 3/4/222
f 2/281/223 15/282/223 30/2/223
f 4/283/224 3/4/224 5/5/224
f 271/11/225 30/2/225 11/13/225
f 12/17/226 11/13/226 30/2/226
f 15/282/227 14/20/227 30/2/227
f 19/90/228 18/21/228 20/14/228
f 18/21/229 33/22/229 31/12/229
f 20/14/230 18/21/230 31/12/230
f 16/24/231 32/23/231 18/21/231
f 27/26/232 25/33/232 34/27/232
f 34/27/233 1/28/233 33/22/233
f 33/22/234 1/28/234 29/284/234
f 26/285/235 25/33/235 27/26/235
f 41/56/236 48/37/236 37/35/236
f 49/57/237 43/38/237 42/36/237 63/59/237
f 41/56/238 47/54/238 48/37/238
f 48/37/239 63/59/239 42/36/239
f 69/53/240 40/44/240 39/42/240 53/69/240
f 43/38/241 49/57/241 50/51/241
f 44/41/242 59/43/242 38/40/242
f 39/42/243 52/52/243 53/69/243
f 54/55/244 41/56/244 36/48/244 61/49/244
f 58/66/245 59/43/245 51/50/245 57/68/245
f 49/57/246 56/60/246 50/51/246
f 65/65/247 66/67/247 57/68/247 51/50/247
f 70/46/248 60/286/248 45/45/248
f 45/45/249 60/286/249 46/268/249
f 47/54/250 54/55/250 62/62/250
f 48/37/251 73/63/251 63/59/251
f 55/58/252 64/72/252 56/60/252
f 50/51/253 56/60/253 65/65/253
f 76/74/254 77/75/254 67/61/254 58/66/254
f 58/66/255 67/61/255 59/43/255
f 52/52/256 67/61/256 68/70/256
f 60/286/257 84/92/257 46/268/257
f 61/49/258 71/279/258 72/71/258
f 62/62/259 80/80/259 73/63/259
f 83/287/260 84/92/260 60/286/260 70/46/260
f 68/70/261 78/76/261 53/69/261
f 69/53/262 78/76/262 79/77/262
f 70/46/263 79/77/263 83/287/263
f 73/63/264 81/81/264 74/64/264
f 74/64/265 82/82/265 64/72/265
f 64/72/266 82/82/266 56/60/266
f 88/99/267 81/81/267 80/80/267 98/87/267
f 72/71/268 71/279/268 85/111/268
f 54/55/269 72/71/269 97/86/269
f 89/100/270 74/64/270 81/81/270 88/99/270
f 113/101/271 92/108/271 68/70/271 77/75/271
f 82/82/272 100/88/272 65/65/272
f 75/73/273 90/83/273 76/74/273
f 77/75/274 90/83/274 91/103/274
f 77/75/275 91/103/275 113/101/275
f 93/89/276 78/76/276 68/70/276 92/108/276
f 95/95/277 96/91/277 84/92/277 83/287/277
f 83/287/278 79/77/278 95/95/278
f 107/102/279 91/103/279 90/83/279 111/107/279
f 85/111/280 97/86/280 72/71/280
f 86/85/281 105/93/281 87/79/281
f 89/100/282 99/288/282 74/64/282
f 74/64/283 99/288/283 82/82/283
f 82/82/284 99/288/284 100/88/284
f 100/88/285 101/94/285 75/73/285
f 93/89/286 102/104/286 94/84/286
f 94/84/287 103/96/287 79/77/287
f 86/85/288 97/86/288 104/97/288
f 98/87/289 106/98/289 88/99/289
f 101/94/290 111/107/290 90/83/290
f 119/117/291 100/88/291 99/288/291 118/126/291
f 92/108/292 114/105/292 93/89/292
f 94/84/293 102/104/293 103/96/293
f 95/95/294 103/96/294 108/109/294
f 95/95/295 108/109/295 96/91/295
f 85/111/296 109/112/296 97/86/296
f 105/93/297 110/114/297 106/98/297
f 124/110/298 103/96/298 102/104/298 114/105/298
f 100/88/299 120/116/299 101/94/299
f 101/94/300 120/116/300 111/107/300
f 118/126/301 99/288/301 89/100/301 117/124/301
f 108/109/302 115/121/302 96/91/302
f 97/86/303 126/122/303 104/97/303
f 104/97/304 127/115/304 105/93/304
f 106/98/305 110/114/305 117/124/305
f 106/98/306 117/124/306 89/100/306
f 120/116/307 121/128/307 112/106/307 111/107/307
f 146/141/308 126/122/308 109/112/308 131/133/308
f 107/102/309 112/106/309 128/118/309
f 124/110/310 114/105/310 123/131/310
f 116/113/311 131/133/311 109/112/311
f 110/114/312 133/123/312 117/124/312
f 120/116/313 137/127/313 138/129/313
f 112/106/314 121/128/314 128/118/314
f 113/101/315 128/118/315 129/130/315
f 114/105/316 122/119/316 140/132/316
f 136/136/317 119/117/317 118/126/317 135/135/317
f 126/122/318 147/143/318 127/115/318
f 127/115/319 132/151/319 133/123/319
f 141/148/320 123/131/320 140/132/320 151/153/320
f 138/129/321 139/138/321 121/128/321
f 121/128/322 139/138/322 128/118/322
f 122/119/323 129/130/323 140/132/323
f 158/137/324 151/153/324 140/132/324 129/130/324
f 123/131/325 141/148/325 142/139/325
f 125/120/326 142/139/326 143/140/326
f 116/113/327 144/289/327 130/134/327
f 130/134/328 144/289/328 145/142/328
f 130/134/329 145/142/329 131/133/329
f 127/115/330 147/143/330 132/151/330
f 132/151/331 148/144/331 133/123/331
f 135/135/332 149/145/332 136/136/332
f 136/136/333 149/145/333 137/127/333
f 153/156/334 154/269/334 17/25/334 115/121/334
f 115/121/335 143/140/335 153/156/335
f 169/171/336 161/157/336 143/140/336 142/139/336
f 144/289/337 163/158/337 145/142/337
f 145/142/338 155/150/338 146/141/338
f 146/141/339 155/150/339 147/143/339
f 149/145/340 135/135/340 156/159/340
f 150/146/341 158/137/341 139/138/341
f 151/153/342 160/155/342 141/148/342
f 152/147/343 169/171/343 142/139/343
f 171/173/344 165/149/344 155/150/344 164/164/344
f 144/289/345 162/290/345 163/158/345
f 176/178/346 169/171/346 152/147/346 160/155/346
f 148/144/347 166/160/347 134/125/347
f 134/125/348 166/160/348 135/135/348
f 156/159/349 167/161/349 149/145/349
f 158/137/350 150/146/350 174/162/350
f 159/154/351 168/163/351 151/153/351
f 170/165/352 155/150/352 163/158/352 162/290/352
f 7/185/353 178/183/353 162/290/353 6/277/353
f 165/149/354 172/166/354 148/144/354
f 156/159/355 166/160/355 180/167/355
f 157/152/356 167/161/356 173/169/356
f 159/154/357 174/162/357 175/170/357
f 160/155/358 168/163/358 176/178/358
f 169/171/359 176/178/359 177/172/359
f 178/183/360 189/192/360 170/165/360 162/290/360
f 191/175/361 192/188/361 180/167/361 172/166/361
f 170/165/362 179/174/362 164/164/362
f 171/173/363 191/175/363 165/149/363
f 166/160/364 172/166/364 180/167/364
f 167/161/365 180/167/365 193/176/365
f 175/170/366 183/190/366 168/163/366
f 168/163/367 183/190/367 184/179/367
f 176/178/368 184/179/368 185/181/368
f 176/178/369 197/180/369 177/172/369
f 178/183/370 187/184/370 188/193/370
f 178/183/371 188/193/371 189/192/371
f 170/165/372 189/192/372 198/186/372
f 195/189/373 174/162/373 181/168/373 194/204/373
f 181/168/374 173/169/374 194/204/374
f 211/209/375 201/291/375 194/204/375 173/169/375
f 182/177/376 196/191/376 175/170/376
f 185/181/377 184/179/377 197/180/377
f 179/174/378 198/186/378 199/198/378
f 191/175/379 200/201/379 192/188/379
f 173/169/380 193/176/380 211/209/380
f 203/196/381 184/179/381 183/190/381 196/191/381
f 195/189/382 202/194/382 182/177/382
f 208/292/383 209/202/383 191/175/383 190/187/383
f 184/179/384 204/195/384 197/180/384
f 188/193/385 187/184/385 205/197/385
f 199/198/386 207/200/386 179/174/386
f 190/187/387 207/200/387 208/292/387
f 229/250/388 153/156/388 161/157/388 218/293/388
f 200/201/389 210/207/389 192/188/389
f 193/176/390 192/188/390 211/209/390
f 201/291/391 212/203/391 194/204/391
f 195/189/392 212/203/392 202/194/392
f 202/194/393 212/203/393 216/205/393
f 203/196/394 228/220/394 204/195/394
f 186/182/395 218/293/395 161/157/395
f 213/215/396 214/211/396 211/209/396 192/188/396
f 153/156/397 229/250/397 154/269/397
f 198/186/398 205/197/398 206/199/398
f 209/202/399 223/208/399 200/201/399
f 210/207/400 213/215/400 192/188/400
f 218/293/401 186/182/401 197/180/401 217/219/401
f 211/209/402 215/210/402 201/291/402
f 201/291/403 215/210/403 212/203/403
f 197/180/404 204/195/404 217/219/404
f 222/213/405 223/208/405 209/202/405 208/292/405
f 205/197/406 220/212/406 206/199/406
f 207/200/407 199/198/407 221/214/407
f 207/200/408 222/213/408 208/292/408
f 225/217/409 215/210/409 214/211/409 224/223/409
f 210/207/410 223/208/410 232/216/410
f 214/211/411 213/215/411 224/223/411
f 226/294/412 216/205/412 212/203/412 225/217/412
f 226/294/413 227/218/413 196/191/413 216/205/413
f 227/218/414 236/234/414 228/220/414 203/196/414
f 233/230/415 234/295/415 225/217/415 224/223/415
f 219/206/416 8/252/416 230/221/416
f 206/199/417 220/212/417 231/222/417
f 223/208/418 222/213/418 232/216/418
f 213/215/419 232/216/419 240/224/419
f 227/218/420 226/294/420 225/217/420 235/232/420
f 225/217/421 234/295/421 235/232/421
f 252/245/422 229/250/422 218/293/422 238/296/422
f 236/234/423 237/225/423 228/220/423
f 217/219/424 238/296/424 218/293/424
f 243/243/425 238/296/425 217/219/425 237/225/425
f 220/212/426 230/221/426 244/227/426
f 220/212/427 245/226/427 231/222/427
f 221/214/428 246/229/428 222/213/428
f 246/229/429 221/214/429 231/222/429 245/226/429
f 253/257/430 244/227/430 230/221/430 263/256/430
f 239/228/431 247/236/431 232/216/431
f 232/216/432 248/235/432 240/224/432
f 240/224/433 248/235/433 249/238/433
f 240/224/434 249/238/434 233/230/434
f 233/230/435 250/237/435 234/295/435
f 234/295/436 250/237/436 235/232/436
f 237/225/437 242/233/437 256/249/437
f 243/243/438 252/245/438 238/296/438
f 8/252/439 263/256/439 230/221/439
f 254/240/440 239/228/440 246/229/440 258/255/440
f 244/227/441 253/257/441 245/226/441
f 245/226/442 258/255/442 246/229/442
f 265/258/443 259/263/443 250/237/443 255/241/443
f 248/235/444 255/241/444 249/238/444
f 241/231/445 261/242/445 242/233/445
f 242/233/446 261/242/446 256/249/446
f 237/225/447 256/249/447 257/244/447
f 8/252/448 268/253/448 263/256/448
f 253/257/449 258/255/449 245/226/449
f 254/240/450 258/255/450 264/246/450
f 255/241/451 247/236/451 265/258/451
f 270/259/452 261/242/452 251/239/452 260/247/452
f 250/237/453 259/263/453 260/247/453
f 256/249/454 261/242/454 262/248/454
f 257/244/455 266/251/455 252/245/455
f 22/273/456 269/271/456 264/246/456 258/255/456
f 9/254/457 21/274/457 268/253/457
f 24/262/458 265/258/458 264/246/458 269/271/458
f 61/49/459 35/47/459 2/297/459 3/280/459
f 265/258/460 25/261/460 259/263/460
f 260/247/461 26/270/461 270/259/461
f 15/265/462 2/297/462 35/47/462
f 14/264/463 35/47/463 36/48/463
f 14/264/464 36/48/464 41/56/464
f 13/78/465 44/41/465 12/39/465
f 11/266/466 38/40/466 39/42/466
f 10/267/467 39/42/467 40/44/467
f 10/267/468 45/45/468 20/14/468
f 46/268/469 19/90/469 20/14/469
f 115/121/470 17/25/470 18/21/470
f 16/24/471 229/250/471 32/23/471
f 266/251/472 27/298/472 267/260/472
f 270/259/473 27/298/473 266/251/473
f 270/259/474 26/270/474 27/298/474
f 269/271/475 22/273/475 23/272/475
f 268/253/476 22/273/476 258/255/476
f 219/206/477 7/185/477 8/252/477
f 6/277/478 162/290/478 144/289/478
f 6/277/479 144/289/479 116/113/479
f 5/276/480 116/113/480 85/111/480
f 4/278/481 85/111/481 71/279/481
f 61/49/482 3/280/482 71/279/482
f 33/22/483 271/299/483 31/12/483
f 271/299/483 33/22/483 29/300/483
